<?xml version="1.0" standalone="no"?>
<!DOCTYPE svg PUBLIC "-//W3C//DTD SVG 20010904//EN"
 "http://www.w3.org/TR/2001/REC-SVG-20010904/DTD/svg10.dtd">
<svg version="1.0" xmlns="http://www.w3.org/2000/svg"
 width="416.000000pt" height="626.000000pt" viewBox="0 0 416.000000 626.000000"
 preserveAspectRatio="xMidYMid meet">
<metadata>
Created by potrace 1.16, written by Peter Selinger 2001-2019
</metadata>
<g transform="translate(0.000000,626.000000) scale(0.100000,-0.100000)"
fill="#000000" stroke="none">
<path d="M2312 5600 c1 -5 36 -57 76 -115 51 -74 82 -110 102 -116 23 -9 29
-18 35 -55 3 -24 10 -42 16 -39 5 4 9 1 9 -5 0 -6 5 -8 12 -4 7 4 8 3 4 -4 -9
-16 31 -212 60 -288 13 -36 24 -70 24 -77 0 -7 -20 -35 -45 -62 -24 -27 -42
-51 -40 -53 2 -2 -7 -16 -21 -31 -13 -14 -24 -33 -23 -41 3 -34 -2 -50 -15
-50 -8 0 -18 -5 -22 -12 -5 -7 -3 -8 7 -3 12 7 12 6 1 -8 -8 -9 -30 -17 -50
-19 -28 -2 -36 -7 -34 -19 1 -9 -6 -19 -16 -21 -14 -4 -18 -14 -17 -42 1 -34
-5 -40 -33 -37 -7 1 -15 -5 -18 -13 -3 -8 -12 -12 -20 -9 -8 3 -21 0 -29 -7
-9 -7 -18 -10 -22 -6 -3 3 -1 6 5 6 7 0 12 7 12 15 0 21 -20 19 -21 -2 -1 -10
-1 -21 0 -25 0 -5 -6 -8 -15 -8 -8 0 -13 -4 -9 -9 3 -5 -8 -16 -25 -24 -17 -9
-32 -11 -36 -6 -3 5 -11 9 -17 9 -8 0 -8 -3 1 -9 11 -7 10 -10 -3 -15 -28 -10
-80 -7 -125 9 -38 13 -42 13 -36 -1 3 -9 6 -21 6 -28 0 -11 71 -58 85 -56 3 0
20 0 38 -1 31 0 32 0 7 -10 -14 -6 -51 -11 -83 -12 -48 -2 -61 2 -73 18 -15
21 -59 31 -68 16 -3 -5 2 -19 13 -32 15 -19 31 -24 86 -27 38 -3 100 1 138 8
60 11 357 21 357 12 0 -2 -23 -28 -51 -58 l-52 -54 29 0 c16 0 53 11 82 25 28
13 52 20 52 15 0 -5 -5 -12 -11 -16 -6 -3 -10 -27 -9 -53 4 -80 2 -88 -35
-110 -34 -20 -35 -20 -25 -1 5 10 10 27 10 37 0 10 -9 0 -20 -22 -11 -23 -28
-41 -37 -42 -22 -2 -233 -115 -233 -125 0 -4 8 -5 18 -2 13 5 14 4 3 -4 -8 -6
-20 -8 -28 -5 -21 8 -18 -130 4 -153 30 -30 18 -128 -17 -137 -14 -3 -20 -13
-20 -31 0 -14 -4 -26 -10 -26 -5 0 -10 -9 -10 -20 0 -13 -7 -20 -20 -20 -13 0
-20 -7 -20 -20 0 -13 -5 -18 -15 -14 -8 4 -15 2 -15 -3 0 -25 -153 -48 -225
-34 -58 11 -67 8 -32 -11 39 -20 106 -102 113 -137 6 -26 4 -31 -13 -31 -64 0
-99 -91 -49 -124 66 -43 165 -40 320 9 43 14 96 30 117 35 22 6 39 16 39 22 0
5 -18 28 -40 50 -32 33 -40 47 -40 77 1 20 7 47 15 61 8 14 14 34 15 45 0 30
38 48 101 50 93 3 197 81 235 175 9 22 20 40 24 40 8 0 110 176 110 190 0 10
36 26 105 46 111 33 190 144 202 284 5 67 -16 114 -66 147 -115 77 -311 -66
-311 -225 l0 -35 -22 29 c-13 16 -26 30 -30 32 -14 6 -29 83 -23 112 5 22 0
34 -22 56 -27 28 -31 29 -128 29 l-100 0 -32 40 c-18 22 -33 43 -33 47 0 4 33
26 73 49 92 53 201 135 254 192 126 135 179 349 118 487 l-24 55 -1 -95 c-1
-52 -7 -117 -14 -145 l-13 -50 -26 52 c-18 35 -25 62 -22 85 13 101 17 256 6
262 -6 4 -11 18 -11 32 0 33 -73 110 -158 168 -70 47 -166 93 -160 76z"/>
<path d="M1810 5559 c-78 -42 -182 -129 -202 -167 -16 -34 -11 -83 12 -106 14
-14 59 9 70 38 5 14 18 30 29 35 31 17 175 231 154 231 -4 0 -33 -14 -63 -31z"/>
<path d="M1585 5250 c2 -52 7 -125 11 -161 5 -55 3 -75 -17 -127 -13 -34 -27
-62 -30 -62 -12 0 -31 104 -30 170 1 78 -10 84 -28 16 -25 -100 -2 -208 66
-315 35 -55 179 -211 195 -211 4 0 -5 21 -21 48 -15 26 -40 81 -55 122 -17 47
-40 90 -62 113 l-35 37 16 62 c9 35 23 111 31 169 12 94 12 110 -1 135 -8 16
-15 25 -16 19 0 -5 -7 10 -15 35 -13 44 -13 43 -9 -50z"/>
<path d="M2409 5137 l-104 -73 -96 -159 c-53 -88 -103 -160 -110 -160 -8 0
-53 63 -102 140 -48 76 -97 150 -109 162 -26 28 -189 145 -194 140 -2 -2 -8
-41 -13 -88 -5 -46 -18 -109 -30 -139 l-21 -55 37 -32 c70 -59 377 -213 426
-213 71 0 517 216 517 251 0 5 -13 35 -30 66 -18 36 -34 89 -41 138 -7 44 -15
83 -19 88 -3 4 -53 -25 -111 -66z m51 -61 c7 -24 13 -68 14 -97 1 -51 0 -53
-47 -87 -46 -33 -157 -85 -166 -77 -2 2 28 60 66 127 38 68 74 135 81 151 17
40 38 33 52 -17z m-588 -101 c36 -72 67 -136 67 -144 1 -18 -39 -7 -92 26 -74
46 -80 57 -78 137 2 85 10 118 25 114 6 -2 41 -62 78 -133z"/>
<path d="M1329 4287 c-82 -54 -98 -160 -41 -280 38 -81 73 -107 149 -107 50 0
51 -1 47 -27 -10 -64 -9 -184 1 -194 7 -9 5 -10 -9 -5 -15 5 -17 4 -7 -7 9
-12 5 -13 -27 -4 -55 15 -96 -6 -100 -52 -2 -18 0 -40 4 -49 4 -10 6 -23 5
-31 -3 -18 19 -71 30 -71 19 0 8 -63 -16 -92 -25 -30 -33 -72 -15 -83 6 -3 10
-2 10 4 0 5 12 14 28 19 17 7 21 11 9 11 -14 1 -16 5 -8 20 6 10 17 21 24 24
15 5 17 -23 19 -284 1 -128 -1 -136 -97 -279 -36 -54 -43 -59 -68 -54 -35 7
-67 -19 -67 -53 0 -21 4 -24 28 -20 15 3 35 8 45 12 22 9 22 -8 -2 -60 -10
-22 -22 -53 -26 -70 l-9 -30 -6 40 c-7 39 -7 39 -9 7 -2 -47 -26 -89 -62 -108
-29 -15 -30 -16 -14 -34 9 -10 23 -16 31 -13 10 4 12 0 8 -11 -5 -12 -10 -13
-26 -5 -17 9 -25 6 -52 -20 -18 -17 -39 -31 -48 -31 -9 0 -30 -14 -47 -31 -25
-25 -29 -34 -21 -50 13 -24 25 -24 61 1 24 18 31 19 49 8 24 -15 27 -69 5 -88
-9 -7 -15 -29 -15 -52 0 -22 -5 -48 -10 -58 -7 -13 -7 -21 0 -25 5 -3 10 -28
10 -54 0 -45 18 -80 33 -65 3 3 10 -9 15 -27 10 -42 25 -40 32 3 5 29 6 30 12
11 3 -13 14 -23 23 -23 14 0 16 6 12 28 -3 15 -8 34 -12 42 -4 11 2 16 21 18
14 1 29 4 34 7 15 9 -2 44 -24 47 -13 2 -20 9 -17 18 2 8 6 35 9 60 7 66 42
83 61 30 17 -52 38 -37 46 33 14 116 10 165 -13 197 l-22 29 25 38 c20 29 25
47 23 82 -3 41 0 49 33 78 19 17 47 54 61 80 45 82 99 261 105 346 6 72 8 79
35 95 19 11 35 34 48 69 20 54 18 83 -6 83 -9 0 -14 11 -14 29 0 15 -9 40 -20
54 -29 36 -26 86 9 133 l28 39 -36 40 c-30 33 -39 53 -50 112 -8 46 -9 78 -3
90 18 35 22 141 7 198 -7 30 -14 84 -14 120 0 102 -29 173 -82 201 -40 20 -81
17 -120 -9z"/>
<path d="M3083 4228 c-1 -54 -25 -153 -48 -198 -8 -14 -38 -56 -69 -94 l-55
-69 40 -20 c39 -19 39 -20 38 -76 0 -31 -3 -74 -7 -95 -7 -38 -9 -40 -67 -56
-33 -9 -70 -22 -82 -28 -30 -16 -48 -75 -34 -110 6 -15 12 -39 14 -53 1 -15 9
-34 16 -43 25 -30 25 -92 1 -126 -12 -17 -16 -30 -10 -30 8 0 10 -12 5 -38 -5
-30 -2 -44 15 -65 28 -36 83 -50 124 -33 37 15 86 103 86 152 0 34 -33 84 -55
84 -29 0 -34 33 -10 65 25 32 81 218 97 320 11 70 4 175 -11 185 -8 4 -5 13 9
25 11 10 36 43 56 72 63 94 58 223 -10 264 -17 10 -33 19 -36 19 -3 0 -6 -24
-7 -52z"/>
<path d="M1864 3826 c-57 -25 -128 -136 -166 -259 l-21 -69 29 -24 c16 -13 37
-29 47 -35 16 -9 18 -8 10 6 -8 13 4 43 46 122 68 128 94 157 152 173 24 7 50
14 57 16 18 5 15 71 -4 78 -28 11 -118 6 -150 -8z"/>
<path d="M3080 3183 c0 -9 -7 -24 -15 -33 -11 -12 -16 -46 -17 -135 -2 -103
-4 -114 -15 -89 -15 35 -17 16 -3 -22 8 -21 7 -31 -5 -44 -10 -12 -14 -26 -10
-43 5 -18 1 -31 -12 -44 -10 -10 -29 -40 -43 -66 l-25 -48 -19 46 c-16 39 -22
45 -48 45 -45 0 -67 -17 -89 -67 -22 -52 -23 -57 -7 -47 8 5 9 2 5 -10 -6 -15
1 -13 39 8 26 14 50 26 55 26 11 0 29 -67 28 -105 -1 -29 -1 -29 -14 10 -14
38 -14 38 -8 6 13 -79 6 -115 -27 -142 -17 -15 -45 -29 -61 -33 -16 -3 -29
-10 -29 -16 0 -6 5 -8 10 -5 6 3 15 3 21 -1 13 -7 -48 -74 -68 -74 -16 0 -54
-60 -47 -72 3 -5 9 -6 13 -3 5 2 6 -7 3 -20 -7 -38 30 -32 72 11 19 19 36 31
39 27 9 -15 -25 -107 -49 -134 -28 -29 -30 -45 -8 -53 11 -4 28 7 53 34 20 22
40 40 43 40 13 0 -5 -105 -24 -135 -22 -36 -23 -55 -3 -55 8 0 15 -6 15 -12 1
-7 10 9 22 35 13 29 26 46 34 43 7 -3 15 2 18 9 3 8 12 12 20 9 22 -8 31 34
31 138 0 82 1 87 23 93 16 4 22 13 22 31 0 14 12 40 26 57 20 23 24 38 20 60
-3 16 -6 43 -6 59 0 24 -5 29 -30 35 -35 6 -34 11 6 101 13 29 24 57 24 63 0
5 11 31 24 57 43 84 76 218 76 304 0 64 -5 88 -25 128 -27 53 -35 61 -35 33z"/>
<path d="M2318 3146 c-49 -26 -50 -27 -30 -42 14 -10 28 -11 53 -4 19 6 50 10
69 10 l35 0 -37 -30 c-45 -37 -112 -151 -172 -291 -64 -147 -87 -242 -95 -384
l-6 -120 -80 -3 c-44 -2 -89 -1 -100 2 -24 6 -109 117 -159 206 -19 36 -38 64
-41 62 -3 -2 -11 -1 -18 1 -9 4 -9 8 1 15 11 8 8 27 -17 106 -17 53 -31 103
-31 111 0 10 -6 12 -17 8 -17 -7 -17 -6 0 20 20 32 8 36 -18 7 -25 -28 -32
-115 -12 -163 9 -20 21 -37 26 -37 6 0 11 -7 11 -15 0 -11 -11 -15 -42 -15
-48 0 -41 -11 18 -28 23 -7 53 -21 67 -32 l26 -21 -5 -232 c-3 -127 -12 -278
-20 -335 -8 -56 -14 -104 -14 -107 0 -2 -15 1 -32 6 -48 13 -58 11 -58 -11 0
-12 9 -24 22 -29 14 -5 17 -10 10 -15 -7 -4 -12 -30 -12 -58 0 -45 -4 -55 -31
-77 -48 -41 -63 -136 -33 -211 21 -53 44 -53 44 0 0 39 1 40 34 40 18 0 67 15
107 33 88 40 129 52 129 37 0 -6 -6 -8 -12 -4 -9 5 -9 2 1 -9 14 -18 26 -23
16 -8 -3 5 -1 12 5 16 5 3 10 1 10 -5 0 -6 5 -8 10 -5 19 12 10 -2 -41 -66
-29 -35 -57 -77 -64 -94 -7 -16 -16 -92 -19 -167 -7 -145 -18 -234 -30 -246
-4 -4 -44 13 -88 37 -71 38 -85 42 -122 37 -123 -20 -153 -50 -96 -98 24 -20
40 -26 60 -21 33 6 90 -21 90 -44 0 -9 -16 -35 -35 -59 l-36 -43 -41 29 c-45
33 -82 38 -114 15 -27 -18 -56 -78 -48 -99 4 -11 1 -16 -11 -16 -35 0 -125
-53 -169 -99 -25 -28 -58 -75 -73 -106 -23 -47 -25 -57 -13 -65 27 -17 144
-29 330 -35 240 -8 289 -12 341 -26 24 -6 112 -15 194 -20 171 -10 325 -28
340 -39 6 -4 85 -13 177 -20 185 -14 234 -10 573 45 159 26 186 32 265 57 59
19 76 28 78 45 3 18 -4 22 -45 28 -26 4 -57 12 -68 18 -23 12 -145 36 -220 43
-88 8 -95 11 -95 43 0 36 -26 110 -46 132 -12 13 -13 22 -5 37 5 10 11 36 12
58 2 35 -5 56 -40 114 -14 23 -31 186 -40 380 -7 163 -9 179 -37 240 -30 67
-67 109 -96 110 -9 0 -29 -17 -45 -37 -46 -59 -48 -72 -5 -25 37 39 42 41 65
31 24 -11 25 -12 10 -48 -20 -47 -20 -161 0 -236 9 -33 18 -73 21 -90 3 -16 8
-39 11 -50 2 -11 9 -40 15 -65 6 -25 13 -53 16 -62 5 -16 -4 -18 -85 -18 -90
0 -90 0 -198 -56 -59 -31 -112 -60 -117 -65 -5 -5 -3 -18 6 -31 11 -17 12 -32
6 -56 -5 -19 -8 -59 -6 -90 l3 -57 23 45 c28 53 76 106 114 126 40 21 104 17
149 -8 37 -21 38 -23 33 -62 -3 -23 -7 -47 -10 -54 -2 -6 2 -12 8 -12 6 0 9
-3 6 -6 -4 -3 -24 6 -45 19 -137 87 -236 31 -299 -168 l-19 -60 -5 70 -5 70
-22 -50 c-12 -27 -23 -45 -23 -40 0 6 -4 5 -8 -2 -4 -7 -43 -13 -99 -15 l-91
-3 14 33 c7 18 20 40 29 48 17 17 12 48 -11 75 -8 9 -48 26 -89 38 -41 13 -75
26 -75 29 0 4 7 16 15 26 31 41 11 132 -31 142 -25 6 -37 37 -21 53 9 9 8 16
0 30 -7 10 -8 23 -3 32 5 7 17 45 26 84 9 38 25 86 35 107 61 121 62 205 4
318 -14 27 -21 31 -47 28 -23 -4 -36 2 -57 23 -19 18 -25 32 -20 41 14 22 10
88 -7 125 -13 26 -14 39 -6 56 45 89 122 337 122 395 0 21 4 22 65 22 36 0 80
6 98 13 18 8 37 12 44 10 6 -2 17 5 23 16 6 12 17 21 25 21 7 0 17 9 20 20 3
11 10 20 15 20 9 0 27 44 40 98 5 22 4 32 -4 32 -13 1 59 70 73 70 14 0 21
-38 21 -115 0 -38 9 -173 20 -300 26 -299 26 -305 -1 -305 -11 0 -34 -8 -49
-17 -27 -16 -28 -18 -14 -44 7 -15 17 -56 20 -90 3 -34 12 -77 20 -95 19 -45
18 -49 -10 -30 -23 14 -26 14 -40 0 -9 -8 -16 -31 -16 -51 0 -28 8 -43 38 -70
20 -20 55 -43 76 -53 42 -19 60 -16 86 15 11 14 9 14 -16 -1 -39 -22 -74 -13
-124 32 -41 37 -51 73 -29 104 9 12 12 12 16 2 3 -8 19 -29 35 -48 50 -57 96
-42 134 44 14 31 32 65 42 75 19 21 17 67 -4 108 -10 20 -11 35 -3 60 6 19 12
124 14 234 2 110 7 238 12 285 14 149 11 207 -13 231 l-22 21 24 43 c54 95 70
212 35 256 -10 13 -23 52 -29 85 -18 107 -85 210 -150 235 -35 13 -93 11 -124
-5z m-403 -2381 c0 -5 -20 -17 -45 -25 -63 -22 -93 -44 -118 -89 -28 -50 -64
-64 -114 -44 -42 17 -53 36 -36 66 23 43 62 67 148 93 51 14 165 14 165 -1z"/>
</g>
</svg>
